<svg xmlns="http://www.w3.org/2000/svg" viewBox="0 0 100% 100%"><defs><clipPath id="a"><rect width="100%" height="100%" rx="10" transform="translate(.39)" fill="rgba(2,160,164,0.2)"/></clipPath></defs><g data-name="support bg svg" transform="translate(6928 2443)"><rect width="100%" height="100%" rx="10" transform="translate(-6928 -2443)" fill="#f01436" opacity=".85"/><g data-name="Illustration Mask" transform="translate(-6928.391 -2443)" opacity=".6" clip-path="url(#a)" fill="rgba(22,22,22,0.4)"><path data-name="Path 199" d="M299.687 470.6c-57.587 68.165-150.654 68.465-207.871.669L-65.66 284.684c-57.219-67.797-56.917-178.012.67-246.177s150.654-68.467 207.871-.671l157.473 186.586c57.218 67.796 56.921 178.01-.668 246.178Z" opacity=".85"/><path data-name="Path 200" d="M-104.07 32.366c91.976-61.629 203.29-29.709 248.63 71.298l124.64 277.68c45.336 101.005 7.53 232.849-84.446 294.479s-203.29 29.708-248.628-71.298l-124.64-277.682c-45.339-101.006-7.53-232.847 84.445-294.477Z" opacity=".85"/></g></g></svg>