<svg width="26" height="16" viewBox="0 0 26 16" fill="none" xmlns="http://www.w3.org/2000/svg">
<path fill-rule="evenodd" clip-rule="evenodd" d="M10.517 4.32931H13.5801V10.4734H17.0712C17.7274 10.4734 18.0857 10.0054 17.9053 9.39601C17.5447 8.17708 16.0267 7.69738 14.5711 7.69738C14.5711 6.63738 14.5711 4.33511 14.5711 4.33511L20.9683 1.67109V4.90751L18.0905 6.03021C19.3928 6.74638 20.3903 7.60974 20.7032 8.62014C21.1031 9.98151 20.8743 11.6584 19.6929 12.7513C18.7755 13.6 17.957 13.5117 17.0712 13.5709L10.5169 13.5771V13.5709H10.5013L10.517 4.32931Z" fill="#686868"/>
<path fill-rule="evenodd" clip-rule="evenodd" d="M5.95915 4.32928V9.74564C5.95915 10.1241 5.66456 10.4349 5.28794 10.4699L3.69862 4.32938H0.990051L2.60103 10.4296H2.58943L2.59818 10.4735H1.43373L2.0445 13.5727L3.23175 13.5735L3.23246 13.5772L5.35277 13.5753L5.35325 13.5746C7.37352 13.5609 9.00731 11.951 9.00731 9.96611V4.32928H5.95915Z" fill="#686868"/>
<path fill-rule="evenodd" clip-rule="evenodd" d="M25.5567 13.5772H22.4922V4.77857L25.5567 3.56853V13.5772Z" fill="#686868"/>
<path d="M25.1228 0.456472C24.8708 0.209535 24.5297 0.0750853 24.1684 0.0694953C24.1669 0.0694953 24.1655 0.0691986 24.1638 0.0691986C24.1638 0.0691986 24.162 0.0691986 24.1611 0.0691986H24.1603H24.159C24.1576 0.0691986 24.1567 0.0691986 24.1567 0.0691986C24.1543 0.0691986 24.1527 0.0693953 24.1527 0.0693953C23.7899 0.0686986 23.4505 0.201249 23.1941 0.443795C22.9373 0.686839 22.7941 1.01233 22.7911 1.36048C22.7877 1.73388 22.9153 2.07514 23.1469 2.32906C23.0204 2.38027 22.9592 2.40672 22.8161 2.46141C22.5653 2.55723 22.4427 2.83111 22.5422 3.07307C22.6177 3.25671 22.7993 3.36921 22.9921 3.37081C23.0533 3.37131 23.1162 3.36184 23.1761 3.33757C23.8506 3.06467 24.6158 2.77184 24.9191 2.54486C24.9407 2.52879 25.0036 2.48367 25.0405 2.45083C25.3911 2.13842 25.5091 1.86763 25.5138 1.3486C25.5168 1.00045 25.3751 0.703909 25.1228 0.456472ZM24.1583 1.85425C23.8947 1.85196 23.6829 1.64395 23.6852 1.38972C23.6874 1.1354 23.9029 0.931182 24.1665 0.933375C24.4301 0.935672 24.6418 1.14368 24.6396 1.39791C24.6373 1.65213 24.4217 1.85655 24.1583 1.85425Z" fill="#E6E6E6"/>
</svg>
